<?xml version="1.0" encoding="UTF-8" standalone="no"?>
<svg
   xmlns:dc="http://purl.org/dc/elements/1.1/"
   xmlns:cc="http://creativecommons.org/ns#"
   xmlns:rdf="http://www.w3.org/1999/02/22-rdf-syntax-ns#"
   xmlns:svg="http://www.w3.org/2000/svg"
   xmlns="http://www.w3.org/2000/svg"
   xmlns:sodipodi="http://sodipodi.sourceforge.net/DTD/sodipodi-0.dtd"
   xmlns:inkscape="http://www.inkscape.org/namespaces/inkscape"
   width="512"
   height="512"
   viewBox="0 0 135.46666 135.46667"
   version="1.1"
   id="svg22"
   inkscape:version="1.0.2 (e86c870879, 2021-01-15)"
   sodipodi:docname="lodowka-zaba_dopowiadomien.svg">
  <defs
     id="defs16" />
  <sodipodi:namedview
     id="base"
     pagecolor="#ffffff"
     bordercolor="#666666"
     borderopacity="1.0"
     inkscape:pageopacity="0.0"
     inkscape:pageshadow="2"
     inkscape:zoom="1.979899"
     inkscape:cx="227.4909"
     inkscape:cy="334.65782"
     inkscape:document-units="mm"
     inkscape:current-layer="g1558"
     inkscape:document-rotation="0"
     showgrid="false"
     units="px"
     inkscape:snap-global="true"
     inkscape:snap-bbox="false"
     inkscape:snap-center="true"
     inkscape:window-width="1440"
     inkscape:window-height="1695"
     inkscape:window-x="5749"
     inkscape:window-y="1415"
     inkscape:window-maximized="0" />
  <metadata
     id="metadata19">
    <rdf:RDF>
      <cc:Work
         rdf:about="">
        <dc:format>image/svg+xml</dc:format>
        <dc:type
           rdf:resource="http://purl.org/dc/dcmitype/StillImage" />
        <dc:title></dc:title>
      </cc:Work>
    </rdf:RDF>
  </metadata>
  <g
     inkscape:label="Warstwa 1"
     inkscape:groupmode="layer"
     id="layer1">
    <g
       id="g1558"
       transform="matrix(0.5024519,0,0,0.5024519,33.255526,66.139525)"
       style="stroke-width:3.15951;stroke-miterlimit:4;stroke-dasharray:none">
      <g
         id="g1890"
         style="stroke-width:3.25456183;stroke-miterlimit:4;stroke-dasharray:none"
         transform="matrix(1.2943909,0,0,1.2943909,-20.200843,1.0135982)">
        <rect
           style="fill:none;stroke:#000000;stroke-width:1.63526074;stroke-miterlimit:4;stroke-dasharray:none;stroke-opacity:1"
           id="rect24"
           width="58.775295"
           height="95.100426"
           x="-97.120979"
           y="-114.5276"
           ry="7.7485118"
           transform="matrix(-1.9902403,0,0,-1.9902403,-66.186487,-131.63355)" />
        <path
           style="fill:none;stroke:#000000;stroke-width:1.63526074;stroke-linecap:butt;stroke-linejoin:miter;stroke-miterlimit:4;stroke-dasharray:none;stroke-opacity:1"
           d="M 97.480056,80.093171 H 38.893748"
           id="path861"
           transform="matrix(1.9902403,0,0,1.9902403,-66.186487,-131.63355)" />
        <path
           style="fill:none;stroke:#000000;stroke-width:1.63526074;stroke-linecap:butt;stroke-linejoin:miter;stroke-miterlimit:4;stroke-dasharray:none;stroke-opacity:1"
           d="M 43.164882,85.044641 H 92.301785"
           id="path889"
           transform="matrix(1.9902403,0,0,1.9902403,-66.186487,-131.63355)" />
        <g
           id="g1444"
           style="stroke-width:3.25456183;stroke-miterlimit:4;stroke-dasharray:none">
          <path
             style="color:#000000;font-style:normal;font-variant:normal;font-weight:normal;font-stretch:normal;font-size:medium;line-height:normal;font-family:sans-serif;font-variant-ligatures:normal;font-variant-position:normal;font-variant-caps:normal;font-variant-numeric:normal;font-variant-alternates:normal;font-variant-east-asian:normal;font-feature-settings:normal;font-variation-settings:normal;text-indent:0;text-align:start;text-decoration:none;text-decoration-line:none;text-decoration-style:solid;text-decoration-color:#000000;letter-spacing:normal;word-spacing:normal;text-transform:none;writing-mode:lr-tb;direction:ltr;text-orientation:mixed;dominant-baseline:auto;baseline-shift:baseline;text-anchor:start;white-space:normal;shape-padding:0;shape-margin:0;inline-size:0;clip-rule:nonzero;display:inline;overflow:visible;visibility:visible;opacity:1;isolation:auto;mix-blend-mode:normal;color-interpolation:sRGB;color-interpolation-filters:linearRGB;solid-color:#000000;solid-opacity:1;vector-effect:none;fill:#000000;fill-opacity:1;fill-rule:nonzero;stroke:none;stroke-width:3.25456183;stroke-linecap:butt;stroke-linejoin:miter;stroke-miterlimit:4;stroke-dasharray:none;stroke-dashoffset:0;stroke-opacity:1;color-rendering:auto;image-rendering:auto;shape-rendering:auto;text-rendering:auto;enable-background:accumulate;stop-color:#000000;stop-opacity:1"
             d="m 68.61912,-50.337891 c -6.723591,0 -12.832131,1.663517 -17.371094,4.46875 -4.538962,2.805233 -7.601562,6.885298 -7.601562,11.56836 0,4.683062 3.0626,8.761173 7.601562,11.566406 4.538963,2.805233 10.647503,4.470703 17.371094,4.470703 6.72359,0 12.834084,-1.66547 17.373047,-4.470703 4.538962,-2.805233 7.599609,-6.883344 7.599609,-11.566406 0,-4.683062 -3.060647,-8.763127 -7.599609,-11.56836 -4.538963,-2.805233 -10.649457,-4.46875 -17.373047,-4.46875 z m 0,3.158203 c 6.195936,0 11.783346,1.572615 15.710937,4 3.927592,2.427386 6.103516,5.577263 6.103516,8.878907 0,3.301644 -2.175924,6.451521 -6.103516,8.878906 -3.927591,2.427385 -9.515001,3.998047 -15.710937,3.998047 -6.195936,0 -11.781393,-1.570662 -15.708984,-3.998047 -3.927592,-2.427385 -6.103516,-5.577262 -6.103516,-8.878906 0,-3.301644 2.175924,-6.451521 6.103516,-8.878907 3.927591,-2.427385 9.513048,-4 15.708984,-4 z"
             id="path891" />
          <circle
             style="fill:none;stroke:#000000;stroke-width:3.25456183;stroke-miterlimit:4;stroke-dasharray:none;stroke-opacity:1"
             id="path964"
             cx="85.91153"
             cy="-50.006248"
             r="9.0714283" />
          <circle
             style="fill:none;stroke:#000000;stroke-width:3.25456183;stroke-miterlimit:4;stroke-dasharray:none;stroke-opacity:1"
             id="path964-4"
             cx="51.32671"
             cy="-50.006248"
             r="9.0714283" />
          <ellipse
             style="fill:none;stroke:#000000;stroke-width:3.25456183;stroke-miterlimit:4;stroke-dasharray:none;stroke-opacity:1"
             id="path1076"
             cx="51.32671"
             cy="-50.006252"
             rx="6.8035712"
             ry="3.4017856" />
          <ellipse
             style="fill:none;stroke:#000000;stroke-width:3.25456183;stroke-miterlimit:4;stroke-dasharray:none;stroke-opacity:1"
             id="path1076-7"
             cx="85.91153"
             cy="-50.006252"
             rx="6.8035712"
             ry="3.4017856" />
          <path
             id="path891-5"
             style="color:#000000;font-style:normal;font-variant:normal;font-weight:normal;font-stretch:normal;font-size:medium;line-height:normal;font-family:sans-serif;font-variant-ligatures:normal;font-variant-position:normal;font-variant-caps:normal;font-variant-numeric:normal;font-variant-alternates:normal;font-variant-east-asian:normal;font-feature-settings:normal;font-variation-settings:normal;text-indent:0;text-align:start;text-decoration:none;text-decoration-line:none;text-decoration-style:solid;text-decoration-color:#000000;letter-spacing:normal;word-spacing:normal;text-transform:none;writing-mode:lr-tb;direction:ltr;text-orientation:mixed;dominant-baseline:auto;baseline-shift:baseline;text-anchor:start;white-space:normal;shape-padding:0;shape-margin:0;inline-size:0;clip-rule:nonzero;display:inline;overflow:visible;visibility:visible;opacity:1;isolation:auto;mix-blend-mode:normal;color-interpolation:sRGB;color-interpolation-filters:linearRGB;solid-color:#000000;solid-opacity:1;vector-effect:none;fill:#000000;fill-opacity:1;fill-rule:nonzero;stroke:none;stroke-width:3.25456183;stroke-linecap:butt;stroke-linejoin:miter;stroke-miterlimit:4;stroke-dasharray:none;stroke-dashoffset:0;stroke-opacity:1;paint-order:stroke markers fill;color-rendering:auto;image-rendering:auto;shape-rendering:auto;text-rendering:auto;enable-background:accumulate;stop-color:#000000;stop-opacity:1"
             d="m 68.619123,-36.260063 c -6.723593,0 -12.832151,1.665592 -17.371119,4.470822 -4.538957,2.805231 -7.60153,6.883285 -7.60153,11.566348 0,4.683057 3.062573,8.763165 7.60153,11.5684009 4.538968,2.8052309 10.647526,4.4708227 17.371119,4.4708227 6.723587,0 12.834204,-1.6655918 17.373167,-4.4708227 4.538963,-2.8052359 7.599477,-6.8853439 7.599477,-11.5684009 0,-4.683063 -3.060514,-8.761117 -7.599477,-11.566348 -4.538963,-2.80523 -10.64958,-4.470822 -17.373167,-4.470822 z m 0,3.160533 c 6.195934,0 11.783547,1.570338 15.711135,3.997724 3.927593,2.427385 6.103034,5.577266 6.103034,8.878913 0,3.301642 -2.175441,6.453581 -6.103034,8.880967 -3.927588,2.4273855 -9.515201,3.9977233 -15.711135,3.9977233 -6.19594,0 -11.781494,-1.5703378 -15.709082,-3.9977233 -3.927593,-2.427386 -6.104061,-5.579325 -6.104061,-8.880967 0,-3.301647 2.176468,-6.451528 6.104061,-8.878913 3.927588,-2.427386 9.513142,-3.997724 15.709082,-3.997724 z" />
        </g>
        <path
           style="fill:none;stroke:#000000;stroke-width:3.25456183;stroke-linecap:butt;stroke-linejoin:miter;stroke-miterlimit:4;stroke-dasharray:none;stroke-opacity:1"
           d="m 89.927738,-27.251056 c 6.992559,15.686013 4.157739,20.032739 4.157739,20.032739"
           id="path1155" />
        <path
           style="fill:none;stroke:#000000;stroke-width:3.25456183;stroke-linecap:butt;stroke-linejoin:miter;stroke-miterlimit:4;stroke-dasharray:none;stroke-opacity:1"
           d="m 91.628632,-31.030818 c 12.851208,13.98512 8.126489,24.7574414 8.126489,24.7574414"
           id="path1159" />
        <path
           style="fill:none;stroke:#000000;stroke-width:3.25456183;stroke-linecap:round;stroke-linejoin:miter;stroke-miterlimit:4;stroke-dasharray:none;stroke-opacity:1"
           d="m 100.27484,-18.037886 9.07143,-8.126488"
           id="path1165" />
        <path
           style="fill:none;stroke:#000000;stroke-width:3.25456183;stroke-linecap:butt;stroke-linejoin:miter;stroke-miterlimit:4;stroke-dasharray:none;stroke-opacity:1"
           d="m 96.353334,-24.038257 c 37.041666,-24.379464 8.693456,13.607142 8.693456,13.607142 0,0 14.93006,-7.181547 7.9375,0.944941"
           id="path1169" />
        <path
           style="fill:none;stroke:#000000;stroke-width:3.25456183;stroke-linecap:round;stroke-linejoin:miter;stroke-miterlimit:4;stroke-dasharray:none;stroke-opacity:1"
           d="m 112.98429,-9.486174 c -0.66146,0.7559521 -8.31548,2.4095982 -8.31548,2.4095982"
           id="path1190" />
        <path
           style="fill:none;stroke:#000000;stroke-width:3.25456183;stroke-linecap:round;stroke-linejoin:miter;stroke-miterlimit:4;stroke-dasharray:none;stroke-opacity:1"
           d="m 99.755119,-6.2733765 c -0.09449,1.3701636 2.456851,1.8898809 2.456851,1.8898809"
           id="path1196" />
        <path
           style="fill:none;stroke:#000000;stroke-width:3.25456183;stroke-linecap:round;stroke-linejoin:miter;stroke-miterlimit:4;stroke-dasharray:none;stroke-opacity:1"
           d="m 102.21197,-4.3834956 c 2.36235,0.2362351 5.29167,1.8898809 5.29167,1.8898809"
           id="path1198" />
        <path
           style="fill:none;stroke:#000000;stroke-width:3.25456183;stroke-linecap:butt;stroke-linejoin:miter;stroke-miterlimit:4;stroke-dasharray:none;stroke-opacity:1"
           d="m 94.085476,-7.2183168 c -0.755951,1.0394344 -6.52009,2.6930802 -6.52009,2.6930802"
           id="path1200" />
        <path
           style="fill:none;stroke:#000000;stroke-width:3.25456183;stroke-linecap:round;stroke-linejoin:miter;stroke-miterlimit:4;stroke-dasharray:none;stroke-opacity:1"
           d="m 87.565384,-4.5252366 c -1.039432,0.4724702 -3.307289,2.3151041 -3.307289,2.3151041"
           id="path1202" />
        <path
           style="fill:none;stroke:#000000;stroke-width:3.25456183;stroke-linecap:round;stroke-linejoin:miter;stroke-miterlimit:4;stroke-dasharray:none;stroke-opacity:1"
           d="m 107.50364,-2.4936147 c 0,2.3623512 -8.22099,-0.4724702 -8.22099,-0.4724702"
           id="path1204" />
        <path
           style="fill:none;stroke:#000000;stroke-width:3.25456183;stroke-linecap:round;stroke-linejoin:miter;stroke-miterlimit:4;stroke-dasharray:none;stroke-opacity:1"
           d="m 84.258095,-2.2101325 c 0.283482,1.7008928 7.701266,-0.7559524 7.701266,-0.7559524"
           id="path1206" />
        <path
           style="fill:none;stroke:#000000;stroke-width:3.25456183;stroke-linecap:round;stroke-linejoin:miter;stroke-miterlimit:4;stroke-dasharray:none;stroke-opacity:1"
           d="M 99.28265,-2.9660849 C 97.912486,-3.3913081 97.392768,-3.8637783 97.392768,-3.8637783"
           id="path1208" />
        <path
           style="fill:none;stroke:#000000;stroke-width:3.25456183;stroke-linecap:round;stroke-linejoin:miter;stroke-miterlimit:4;stroke-dasharray:none;stroke-opacity:1"
           d="m 91.959359,-2.9660849 c 1.370166,-0.7087055 2.504093,-0.7087055 2.504093,-0.7087055 -0.472468,1.9843751 2e-6,5.5751489 2e-6,5.5751489"
           id="path1210" />
        <path
           style="fill:none;stroke:#000000;stroke-width:3.25456183;stroke-linecap:round;stroke-linejoin:miter;stroke-miterlimit:4;stroke-dasharray:none;stroke-opacity:1"
           d="m 94.463452,1.9003585 c 0.897694,6.3783482 2.929316,-5.7641368 2.929316,-5.7641368"
           id="path1212" />
        <path
           style="fill:none;stroke:#000000;stroke-width:3.25456183;stroke-linecap:round;stroke-linejoin:miter;stroke-miterlimit:4;stroke-dasharray:none;stroke-opacity:1"
           d="m 104.66881,-7.0765758 -3.40178,0.2362351"
           id="path1214" />
        <path
           style="fill:none;stroke:#000000;stroke-width:3.25456183;stroke-linecap:butt;stroke-linejoin:miter;stroke-miterlimit:4;stroke-dasharray:none;stroke-opacity:1"
           d="M 47.310498,-27.251055 C 40.317939,-11.565046 43.152759,-7.21832 43.152759,-7.21832"
           id="path1155-7" />
        <path
           style="fill:none;stroke:#000000;stroke-width:3.25456183;stroke-linecap:butt;stroke-linejoin:miter;stroke-miterlimit:4;stroke-dasharray:none;stroke-opacity:1"
           d="M 45.609604,-31.030825 C 32.758401,-17.045701 37.483115,-6.27338 37.483115,-6.27338"
           id="path1159-2" />
        <path
           style="fill:none;stroke:#000000;stroke-width:3.25456183;stroke-linecap:round;stroke-linejoin:miter;stroke-miterlimit:4;stroke-dasharray:none;stroke-opacity:1"
           d="m 36.963399,-18.037889 -9.071428,-8.126488"
           id="path1165-0" />
        <path
           style="fill:none;stroke:#000000;stroke-width:3.25456183;stroke-linecap:butt;stroke-linejoin:miter;stroke-miterlimit:4;stroke-dasharray:none;stroke-opacity:1"
           d="m 40.884902,-24.03826 c -37.041662,-24.379465 -8.693451,13.607142 -8.693451,13.607142 0,0 -14.93006,-7.181547 -7.9375,0.944941"
           id="path1169-1" />
        <path
           style="fill:none;stroke:#000000;stroke-width:3.25456183;stroke-linecap:round;stroke-linejoin:miter;stroke-miterlimit:4;stroke-dasharray:none;stroke-opacity:1"
           d="m 24.253951,-9.486177 c 0.66146,0.755952 8.31548,2.409598 8.31548,2.409598"
           id="path1190-9" />
        <path
           style="fill:none;stroke:#000000;stroke-width:3.25456183;stroke-linecap:round;stroke-linejoin:miter;stroke-miterlimit:4;stroke-dasharray:none;stroke-opacity:1"
           d="m 37.483117,-6.273379 c 0.09449,1.370163 -2.456846,1.88988 -2.456846,1.88988"
           id="path1196-2" />
        <path
           style="fill:none;stroke:#000000;stroke-width:3.25456183;stroke-linecap:round;stroke-linejoin:miter;stroke-miterlimit:4;stroke-dasharray:none;stroke-opacity:1"
           d="m 35.026271,-4.383499 c -2.36235,0.236235 -5.29167,1.889881 -5.29167,1.889881"
           id="path1198-3" />
        <path
           style="fill:none;stroke:#000000;stroke-width:3.25456183;stroke-linecap:butt;stroke-linejoin:miter;stroke-miterlimit:4;stroke-dasharray:none;stroke-opacity:1"
           d="m 43.15276,-7.21832 c 0.755951,1.039435 6.52009,2.69308 6.52009,2.69308"
           id="path1200-5" />
        <path
           style="fill:none;stroke:#000000;stroke-width:3.25456183;stroke-linecap:round;stroke-linejoin:miter;stroke-miterlimit:4;stroke-dasharray:none;stroke-opacity:1"
           d="m 49.672852,-4.52524 c 1.039432,0.472471 3.307289,2.315104 3.307289,2.315104"
           id="path1202-1" />
        <path
           style="fill:none;stroke:#000000;stroke-width:3.25456183;stroke-linecap:round;stroke-linejoin:miter;stroke-miterlimit:4;stroke-dasharray:none;stroke-opacity:1"
           d="m 29.734601,-2.493618 c 0,2.362351 8.220985,-0.47247 8.220985,-0.47247"
           id="path1204-5" />
        <path
           style="fill:none;stroke:#000000;stroke-width:3.25456183;stroke-linecap:round;stroke-linejoin:miter;stroke-miterlimit:4;stroke-dasharray:none;stroke-opacity:1"
           d="m 52.980141,-2.210136 c -0.283482,1.700893 -7.701266,-0.755952 -7.701266,-0.755952"
           id="path1206-3" />
        <path
           style="fill:none;stroke:#000000;stroke-width:3.25456183;stroke-linecap:round;stroke-linejoin:miter;stroke-miterlimit:4;stroke-dasharray:none;stroke-opacity:1"
           d="m 37.955586,-2.966088 c 1.370164,-0.425223 1.889882,-0.897693 1.889882,-0.897693"
           id="path1208-2" />
        <path
           style="fill:none;stroke:#000000;stroke-width:3.25456183;stroke-linecap:round;stroke-linejoin:miter;stroke-miterlimit:4;stroke-dasharray:none;stroke-opacity:1"
           d="m 45.278877,-2.966088 c -1.370166,-0.708705 -2.504093,-0.708705 -2.504093,-0.708705 0.472468,1.984375 -2e-6,5.575148 -2e-6,5.575148"
           id="path1210-4" />
        <path
           style="fill:none;stroke:#000000;stroke-width:3.25456183;stroke-linecap:round;stroke-linejoin:miter;stroke-miterlimit:4;stroke-dasharray:none;stroke-opacity:1"
           d="M 42.774784,1.900355 C 41.87709,8.278704 39.845468,-3.863781 39.845468,-3.863781"
           id="path1212-3" />
        <path
           style="fill:none;stroke:#000000;stroke-width:3.25456183;stroke-linecap:round;stroke-linejoin:miter;stroke-miterlimit:4;stroke-dasharray:none;stroke-opacity:1"
           d="m 32.569431,-7.076579 3.40178,0.236235"
           id="path1214-8" />
      </g>
    </g>
  </g>
</svg>
